<svg version="1.0" xmlns="http://www.w3.org/2000/svg"
 width="700.000000pt" height="700.000000pt" viewBox="0 0 700.000000 700.000000"
 preserveAspectRatio="xMidYMid meet">
    <g transform="translate(0.000000,700.000000) scale(0.100000,-0.100000)"
         stroke="none" fill="#000000">
        <path d="M0 3500 l0 -3500 3500 0 3500 0 0 3500 0 3500 -3500 0 -3500 0 0
        -3500z m1216 61 c112 -50 178 -155 178 -281 1 -125 -54 -214 -166 -270 -50
        -24 -74 -30 -128 -30 -98 0 -155 23 -220 89 -70 71 -94 133 -88 229 12 213
        230 348 424 263z m2199 -7 c146 -69 211 -248 144 -394 -36 -78 -71 -114 -141
        -149 -81 -41 -186 -44 -263 -7 -185 87 -235 325 -101 483 82 97 237 126 361
        67z m870 2 c60 -27 117 -84 148 -146 34 -69 31 -196 -5 -266 -119 -227 -445
        -217 -552 15 -32 70 -29 189 6 257 79 150 251 210 403 140z m1820 -1401 c71
        -44 108 -117 103 -202 -5 -81 -41 -136 -117 -175 l-53 -28 -2530 0 c-1867 0
        -2541 3 -2569 11 -87 27 -149 113 -149 207 0 99 70 190 162 212 18 5 1174 7
        2569 7 l2536 -2 48 -30z m-1303 -880 c50 -35 98 -120 98 -173 0 -84 -49 -166
        -121 -202 -38 -20 -67 -20 -1934 -20 -1846 0 -1897 1 -1933 19 -164 84 -162
        315 3 392 39 18 107 19 1942 16 l1901 -2 44 -30z"/>
    </g>
</svg>
